<?xml version="1.0" encoding="utf-8"?>
<!-- Generator: Adobe Illustrator 22.1.0, SVG Export Plug-In . SVG Version: 6.00 Build 0)  -->
<svg version="1.1" id="Layer_1" xmlns="http://www.w3.org/2000/svg" xmlns:xlink="http://www.w3.org/1999/xlink" x="0px" y="0px"
	 viewBox="0 0 824 826" style="enable-background:new 0 0 824 826;" xml:space="preserve">
<style type="text/css">
	.st0{fill:#FEFEFE;}
	.st1{fill:url(#SVGID_1_);}
	.st2{fill:#00AAC3;}
	.st3{fill:url(#SVGID_2_);}
	.st4{fill:url(#SVGID_3_);}
	.st5{fill:url(#SVGID_4_);}
	.st6{fill:#FFFFFF;}
	.st7{fill:#00B2EB;}
	.st8{fill:#00E2AE;}
</style>
<g>
	<linearGradient id="SVGID_1_" gradientUnits="userSpaceOnUse" x1="565.6985" y1="323.9272" x2="565.6985" y2="177.1772">
		<stop  offset="0" style="stop-color:#00B2EB"/>
		<stop  offset="1" style="stop-color:#00E2AE"/>
	</linearGradient>
	<path class="st1" d="M643.3,237.6c0-33.3-34.8-60.4-77.6-60.4s-77.6,27-77.6,60.4c0,24,18.1,44.8,44.2,54.5
		c1.4,20.5-13,31.9-13,31.9c17.3-5.1,34.2-11.4,50.8-18.4c9-3.8,17.9-8,26.7-12.2c15.9-7.5,31.2-15.8,40.1-31.8
		c0.2-0.4,0.4-0.8,0.6-1.2C641.3,253.3,643.3,245.5,643.3,237.6z"/>
	<path class="st2" d="M472,217.9c0,0-3.3,10.8-2.2,24.8c-27.2,11.3-44.5,21-62.2,25.7c-17.7,4.7-40.3,6.5-66.5-5.3
		c19.3,0,35.3-1.6,59.2-12.5C424.2,239.6,448.3,226.8,472,217.9z"/>
	<linearGradient id="SVGID_2_" gradientUnits="userSpaceOnUse" x1="180.6765" y1="429.61" x2="603.6568" y2="429.61">
		<stop  offset="0" style="stop-color:#00B2EB"/>
		<stop  offset="1" style="stop-color:#00E2AE"/>
	</linearGradient>
	<path class="st3" d="M581.3,320.6c0,0,2.2,35.7-13.1,96.3l-83.4-1l-21.6-42.1c-6.1-11.9-23.2-11.7-29,0.4l-17.8,37.1l-25.3-82.5
		c-5-16.3-28.7-14.7-31.3,2.2l-17.2,109.5l-21.5-59.9c-5.4-15-26.3-15.7-32.7-1.1c-6.3,14.3-12.1,27.8-13.8,31.3
		c-3.9,8.3-11.9,5.9-20.8,5.9c-6.9,0-25.8,0-33.7,0c-12.4-38.7-18.9-66.6-17.9-100.7c2.7-46,27.3-82,74-84.3
		c27.9-0.3,46,6.3,58.6,12.7c3,1.5,6.3,2.4,9.7,2.5c11.1,0.4,16,0.8,36.7-6.2c-21-8-41.7-20.7-66-26.7s-95.3-12-124,51.3
		s7.7,162.3,25.7,213s35,109,60.3,151.3c13,19.3,52.7,34.3,68.7-8.3c14-42,26.7-94.3,49.8-92c18.5,2.7,26.8,23,37.5,60.3
		c7.3,22,14.3,56.3,46,59.1c24.3,1.9,47-28.8,62.7-76.1c16.7-50.4,35.5-100.6,48.1-152.3c6.9-28.4,11.6-56.7,13.2-85.8
		c0.2-7.5,0.3-15,0.4-22.6L581.3,320.6z M482,627.6c-14,0.7-18.3-18.3-23.3-34.7c-5-16.3-21.7-90-66-85.7c-34,4.7-47,43-59,84.3
		c-10.3,33.7-18.3,40.7-30.7,32c-12.7-9.7-31-41.3-57-130c-6.9-20.9-13.1-38.9-18.5-55h41.8c10.5,0,20-6.2,24.2-15.9l9.9-22.8
		l27.4,69.7c5.3,13.6,25.1,11.6,27.7-2.8l19.3-107.8l19.4,68.7c4.6,16.3,27,18.2,34.2,2.8l17.9-38.2l13.9,31.2
		c4.1,9.2,13.2,15.2,23.2,15.3l75.6,0.8c-0.9,3.2-1.9,6.4-3,9.6C533.7,529.3,510.7,619.9,482,627.6z"/>
</g>
</svg>
